<?xml version="1.0" encoding="UTF-8" standalone="no"?>
<svg xmlns="http://www.w3.org/2000/svg" width="1200" height="800" viewBox="0 0 1200 800">
  <defs>
    <pattern id="pattern-hex" width="56" height="100" patternUnits="userSpaceOnUse" patternTransform="scale(2) rotate(0)">
      <rect width="100%" height="100%" fill="#ffffff"/>
      <path d="M28-50 L56 0 L28 50 L0 0 Z" fill="none" stroke="#e74c3c" stroke-width="0.5" opacity="0.2"/>
      <path d="M28 50 L56 100 L28 150 L0 100 Z" fill="none" stroke="#e74c3c" stroke-width="0.5" opacity="0.2"/>
      <path d="M28 150 L56 200 L28 250 L0 200 Z" fill="none" stroke="#e74c3c" stroke-width="0.5" opacity="0.2"/>
      <path d="M84-50 L112 0 L84 50 L56 0 Z" fill="none" stroke="#e74c3c" stroke-width="0.5" opacity="0.2"/>
      <path d="M84 50 L112 100 L84 150 L56 100 Z" fill="none" stroke="#e74c3c" stroke-width="0.5" opacity="0.2"/>
      <path d="M84 150 L112 200 L84 250 L56 200 Z" fill="none" stroke="#e74c3c" stroke-width="0.5" opacity="0.2"/>
    </pattern>
  </defs>
  <rect width="100%" height="100%" fill="url(#pattern-hex)"/>
  <circle cx="600" cy="400" r="300" fill="#e74c3c" opacity="0.05"/>
  <circle cx="600" cy="400" r="200" fill="#e74c3c" opacity="0.05"/>
  <circle cx="600" cy="400" r="100" fill="#e74c3c" opacity="0.05"/>
</svg>
