<?xml version="1.0" encoding="UTF-8" standalone="no"?>
<svg xmlns="http://www.w3.org/2000/svg" viewBox="0 0 512 512">
  <style>
    .logo-red {
      fill: #ED1C24;
    }
  </style>
  <g>
    <!-- Símbolo vermelho da Kiyosito -->
    <path class="logo-red" d="M12.5,103.9c0,0,5.3-45.2,53.2-72.3c0,0,59.5-35.8,112.6,9.5c0,0,14.8,11.6,14.8,29.5c0,0,0.5,14.2-10,27.9
      c0,0-10.5,16.3-26.9,21.6c0,0,14.8,1.6,30.5,18.9c0,0,13.2,12.1,14.2,40.5c0,0,1.1,22.1-14.2,39.5c0,0-14.7,18.4-43.7,18.4
      c0,0-35.3,1.6-61.6-21.1c0,0-6.8-6.3-13.2-6.3c0,0-6.3,0-6.3,6.8c0,0,0,5.8,0,19.5c0,0,0,7.4-7.4,7.4c0,0-24.7,0-24.7,0
      c0,0-7.4,0-7.4-7.4c0,0,0-125.3,0-125.3C22.6,110.8,22.6,103.9,12.5,103.9z M59.3,110.8c0,0,0,31.1,0,31.1c0,0,0,7.4,7.4,7.4
      c0,0,25.8,0,25.8,0c0,0,22.6,0,22.6-22.6c0,0,0-15.8-22.6-15.8c0,0-25.8,0-25.8,0C66.7,110.8,59.3,110.8,59.3,110.8z M59.3,192.9
      c0,0,0,33.7,0,33.7c0,0,0,7.4,7.4,7.4c0,0,25.8,0,25.8,0c0,0,28.9,0,28.9-24.2c0,0,0-16.8-28.9-16.8c0,0-25.8,0-25.8,0
      C66.7,192.9,59.3,192.9,59.3,192.9z"/>
  </g>
</svg>
