<?xml version="1.0" encoding="UTF-8" standalone="no"?>
<svg xmlns="http://www.w3.org/2000/svg" viewBox="0 0 900 300">
  <style>
    .logo-red {
      fill: #ED1C24;
    }
  </style>
  <g>
    <!-- Símbolo vermelho da Kiyosito -->
    <path class="logo-red" d="M12.5,103.9c0,0,5.3-45.2,53.2-72.3c0,0,59.5-35.8,112.6,9.5c0,0,14.8,11.6,14.8,29.5c0,0,0.5,14.2-10,27.9
      c0,0-10.5,16.3-26.9,21.6c0,0,14.8,1.6,30.5,18.9c0,0,13.2,12.1,14.2,40.5c0,0,1.1,22.1-14.2,39.5c0,0-14.7,18.4-43.7,18.4
      c0,0-35.3,1.6-61.6-21.1c0,0-6.8-6.3-13.2-6.3c0,0-6.3,0-6.3,6.8c0,0,0,5.8,0,19.5c0,0,0,7.4-7.4,7.4c0,0-24.7,0-24.7,0
      c0,0-7.4,0-7.4-7.4c0,0,0-125.3,0-125.3C22.6,110.8,22.6,103.9,12.5,103.9z M59.3,110.8c0,0,0,31.1,0,31.1c0,0,0,7.4,7.4,7.4
      c0,0,25.8,0,25.8,0c0,0,22.6,0,22.6-22.6c0,0,0-15.8-22.6-15.8c0,0-25.8,0-25.8,0C66.7,110.8,59.3,110.8,59.3,110.8z M59.3,192.9
      c0,0,0,33.7,0,33.7c0,0,0,7.4,7.4,7.4c0,0,25.8,0,25.8,0c0,0,28.9,0,28.9-24.2c0,0,0-16.8-28.9-16.8c0,0-25.8,0-25.8,0
      C66.7,192.9,59.3,192.9,59.3,192.9z"/>
    
    <!-- Texto "kiyosito" em preto -->
    <path d="M221.9,60.3h31.5v75.5l52.9-46.4h41.4l-56.4,47.3l60.9,67.2h-42.3l-56.5-64.5v64.5h-31.5V60.3z"/>
    <path d="M367.1,60.3h31.5v31.5h-31.5V60.3z M367.1,106.7h31.5v97.2h-31.5V106.7z"/>
    <path d="M422.9,106.7h24.2l3.7,16.8c4.6-5.5,10.1-10.1,16.3-13.6c6.3-3.5,13.4-5.3,21.4-5.3c12.6,0,22.6,3.9,30,11.8
      c7.4,7.9,11.1,19.3,11.1,34.3v53.2h-31.5v-48.8c0-8.4-1.7-14.5-5.1-18.4c-3.4-3.9-8.5-5.8-15.3-5.8c-4.4,0-8.4,1-12,3
      c-3.6,2-6.5,4.8-8.9,8.4v61.6h-31.5v-97.2H422.9z"/>
    <path d="M547.3,155.3c0-14.9,5.2-27.3,15.5-37.2c10.3-9.9,24.2-14.9,41.7-14.9c17.5,0,31.3,5,41.6,14.9
      c10.3,9.9,15.4,22.3,15.4,37.2c0,14.9-5.1,27.3-15.4,37.2c-10.3,9.9-24.1,14.9-41.6,14.9c-17.5,0-31.4-5-41.7-14.9
      C552.5,182.6,547.3,170.2,547.3,155.3z M579.8,155.3c0,8.4,2.3,15.1,6.9,20.1c4.6,5,10.5,7.5,17.8,7.5c7.3,0,13.2-2.5,17.8-7.5
      c4.6-5,6.9-11.7,6.9-20.1c0-8.4-2.3-15.1-6.9-20.1c-4.6-5-10.5-7.5-17.8-7.5c-7.3,0-13.2,2.5-17.8,7.5
      C582.1,140.2,579.8,146.9,579.8,155.3z"/>
    <path d="M683.6,106.7h24.2l3.7,13.7c4.6-5.5,10.1-9.7,16.3-12.6c6.3-2.9,13.4-4.3,21.4-4.3c12.6,0,22.6,3.9,30,11.8
      c7.4,7.9,11.1,19.3,11.1,34.3v53.2h-31.5v-48.8c0-8.4-1.7-14.5-5.1-18.4c-3.4-3.9-8.5-5.8-15.3-5.8c-4.4,0-8.4,1-12,3
      c-3.6,2-6.5,4.8-8.9,8.4v61.6h-31.5v-97.2H683.6z"/>
    <path d="M809.9,60.3h31.5v143.6h-31.5V60.3z"/>
  </g>
</svg>